<?xml version="1.0" encoding="utf-8"?>
<!-- Generator: Adobe Illustrator 19.2.1, SVG Export Plug-In . SVG Version: 6.00 Build 0)  -->
<svg version="1.1" id="Ebene_1" xmlns="http://www.w3.org/2000/svg" xmlns:xlink="http://www.w3.org/1999/xlink" x="0px" y="0px"
	 viewBox="0 0 64 64" style="enable-background:new 0 0 64 64;" xml:space="preserve">
<style type="text/css">
	.st0{fill:#2E3192;}
	.st1{opacity:0.6;fill:#FFFFFF;}
	.st2{fill:#FFFFFF;stroke:#2E3192;stroke-width:3;stroke-miterlimit:10;}
	.st3{fill:#FFFFFF;}
</style>
<path class="st0" d="M0,0h64v64H0V0z"/>
<g>
	<path class="st1" d="M51.4,29.5c-2.1-0.6-3.8-1.4-5.3-2c0,0.4-0.2,0.8-0.6,1.3c-1.2,1.3-3.1,2.9-5.2,2.9c-2.1,0-4-1.6-5.2-2.9
		c-0.4-0.4-0.6-0.9-0.6-1.3c-1.5,0.7-3.2,1.4-5.3,2c0,0-2.4,1.4-2.6,6.8H54C53.8,30.8,51.4,29.5,51.4,29.5L51.4,29.5z"/>
	<path class="st1" d="M46.4,13.8c0-2.7-2.4-4.9-5.3-4.9h-1.5c-2.7,0-5.3,2.2-5.3,4.9v3.8c0,1.6,1.2,3.6,2.7,5
		c-0.1,4.1-1.3,4.5-0.7,5.1c1.9,2,6.1,2.2,8.2,0c0.6-0.6-0.4-1-0.7-5.1c1.4-1.4,2.6-3.4,2.7-5C46.4,17.6,46.4,13.8,46.4,13.8z"/>
</g>
<g>
	<path class="st2" d="M34.7,39.4c-2.1-0.6-3.8-1.4-5.3-2c0,0.4-0.2,0.8-0.6,1.3c-1.2,1.3-3.1,2.9-5.2,2.9c-2.1,0-4-1.6-5.2-2.9
		c-0.4-0.4-0.6-0.9-0.6-1.3c-1.5,0.7-3.2,1.4-5.3,2c0,0-2.4,1.4-2.6,6.8h27.3C37.1,40.7,34.7,39.4,34.7,39.4L34.7,39.4z"/>
	<path class="st3" d="M34.7,39.4c-2.1-0.6-3.8-1.4-5.3-2c0,0.4-0.2,0.8-0.6,1.3c-1.2,1.3-3.1,2.9-5.2,2.9c-2.1,0-4-1.6-5.2-2.9
		c-0.4-0.4-0.6-0.9-0.6-1.3c-1.5,0.7-3.2,1.4-5.3,2c0,0-2.4,1.4-2.6,6.8h27.3C37.1,40.7,34.7,39.4,34.7,39.4L34.7,39.4z"/>
	<path class="st2" d="M29.7,23.7c0-2.7-2.4-4.9-5.3-4.9h-1.5c-2.7,0-5.3,2.2-5.3,4.9v3.8c0,1.6,1.2,3.6,2.7,5
		c-0.1,4.1-1.3,4.5-0.7,5.1c1.9,2,6.1,2.2,8.2,0c0.6-0.6-0.4-1-0.7-5.1c1.4-1.4,2.6-3.4,2.7-5C29.7,27.5,29.7,23.7,29.7,23.7z"/>
	<path class="st3" d="M29.7,23.7c0-2.7-2.4-4.9-5.3-4.9h-1.5c-2.7,0-5.3,2.2-5.3,4.9v3.8c0,1.6,1.2,3.6,2.7,5
		c-0.1,4.1-1.3,4.5-0.7,5.1c1.9,2,6.1,2.2,8.2,0c0.6-0.6-0.4-1-0.7-5.1c1.4-1.4,2.6-3.4,2.7-5C29.7,27.5,29.7,23.7,29.7,23.7z"/>
</g>
<rect x="4.7" y="57" class="st3" width="55.1" height="3.2"/>
<path class="st3" d="M37,55.4v6.3H25.4v-6.3h2.9v-3.2h5.8v3.2H37z"/>
<rect x="29.5" y="48.6" class="st3" width="3.4" height="8.6"/>
</svg>
